<svg width="32" height="32" viewBox="0 0 32 32" fill="none" xmlns="http://www.w3.org/2000/svg">
<path d="M18.815 11.689C18.8091 11.6703 18.7904 11.653 18.7664 11.6439C18.7423 11.6348 18.7168 11.6354 18.7 11.6455C18.671 11.6495 18.6435 11.6561 18.6179 11.6652L18.6123 11.68L18.5687 11.6731L18.4558 11.7367L18.233 11.8747C18.087 11.9692 17.9433 12.0671 17.7972 12.1713L17.3447 12.5123L16.4028 13.1224C15.9383 13.4106 15.5094 13.7267 15.0341 14.0059C14.1971 14.4986 13.3385 14.9735 12.4179 15.4055C12.186 15.5111 11.951 15.6154 11.7075 15.7141C11.5853 15.7646 11.4609 15.8117 11.3364 15.8588L11.1439 15.9261L10.8554 16.0029C10.5102 16.1229 10.1088 16.169 9.68502 16.1373C9.50343 16.1212 9.31837 16.0662 9.15158 15.9788C8.97829 15.881 8.84645 15.7443 8.7841 15.5979C8.69449 15.3386 8.70649 15.0847 8.81854 14.8689C8.86658 14.7421 8.94659 14.6153 9.01718 14.4946C9.0396 14.4354 9.09409 14.3666 9.12724 14.326L9.21497 14.2069C9.45284 13.8885 9.69913 13.5854 9.94783 13.276C10.2612 12.8895 10.5645 12.5016 10.8639 12.1147C11.1829 11.7468 11.4596 11.3549 11.6919 10.9418C11.7896 10.6839 11.91 10.7319 12.0091 11.0426C12.1065 11.5371 12.0484 12.012 11.8395 12.4286C11.598 12.8786 11.3202 13.3026 11.0478 13.7216L10.6377 14.3445L10.442 14.6547L10.2724 14.9337C10.2604 14.9654 10.2394 14.9551 10.2158 14.98C10.1921 15.0048 10.191 15.0455 10.2322 15.0587C10.2756 15.0737 10.3208 15.079 10.3615 15.0738L10.3801 15.0809L10.4317 15.0666L10.6313 14.9995C10.7658 14.9538 10.8981 14.9048 11.0405 14.8573C12.3228 14.3616 13.4549 13.5963 14.5944 12.8774C15.2151 12.4864 15.8516 12.0725 16.4365 11.6729C16.7256 11.4633 17.0289 11.2349 17.3561 11.0277L17.9649 10.6589C18.2084 10.517 18.4986 10.4194 18.8201 10.3713C18.9875 10.348 19.1683 10.3524 19.3519 10.3841C19.541 10.4135 19.7284 10.4845 19.8896 10.5878C20.2148 10.8055 20.432 11.0975 20.4853 11.3887C20.5318 11.6948 20.4789 11.9858 20.3312 12.2367L20.2169 12.4351L20.1313 12.5767L19.9918 12.8043C19.9036 12.9494 19.8847 13.1234 19.9378 13.3035C19.9565 13.3982 20.0559 13.4882 20.1813 13.5238C20.3034 13.5516 20.4249 13.555 20.5329 13.5337C20.645 13.5171 20.752 13.4921 20.8526 13.459C20.977 13.4215 21.1672 13.351 21.3261 13.2879C21.6542 13.1535 21.9747 13.0018 22.2843 12.8411C23.243 12.3365 24.0679 11.7256 24.9316 11.1342C25.1231 11.0037 25.3 10.8652 25.5001 10.7404C25.7002 10.6156 25.846 10.5306 25.9902 10.4596C26.1135 10.4028 26.2492 10.3593 26.3947 10.33C26.5951 10.2845 26.8313 10.3041 27.0563 10.3847C27.1527 10.4141 27.2474 10.45 27.3391 10.4919C27.5912 10.6333 27.4446 10.9451 27.0077 11.367C26.2924 11.9324 25.5148 12.4935 24.6781 13.0419C24.2567 13.3102 23.8158 13.5734 23.3447 13.8228C23.1126 13.9476 22.8681 14.0677 22.6143 14.1843C22.4881 14.2452 22.3565 14.3018 22.2219 14.3571L22.0324 14.4352L21.7937 14.5212L21.681 14.5559L21.5277 14.6042C21.4299 14.6372 21.3291 14.6595 21.2274 14.6838C21.0329 14.7297 20.8285 14.7607 20.6167 14.7764C20.2454 14.808 19.8389 14.7438 19.4564 14.5932C19.0909 14.4361 18.7824 14.1944 18.5904 13.9147C18.3959 13.6096 18.2976 13.2913 18.3047 12.9895C18.3 12.908 18.3094 12.8269 18.3102 12.7499C18.3109 12.6728 18.3413 12.5925 18.3538 12.5126C18.3663 12.4327 18.4123 12.3583 18.4411 12.2822C18.4699 12.2061 18.5055 12.1592 18.5365 12.096C18.5675 12.0328 18.5952 11.9973 18.6197 11.9607L18.6933 11.8508L18.7495 11.7682C18.7664 11.757 18.7732 11.7391 18.7679 11.7195L18.815 11.689Z" fill="#0A7CFF"/>
<path d="M16.4485 16.4922C16.4573 16.4689 16.4702 16.4351 16.422 16.4121C16.3818 16.3968 16.3391 16.3938 16.3043 16.4037L16.2739 16.4091L16.1087 16.4698C15.9804 16.5179 15.8543 16.5693 15.7258 16.627C15.4705 16.7381 15.2143 16.861 14.9627 16.9905C13.9562 17.5085 12.9788 18.0906 11.9812 18.6603C11.2541 19.0786 10.5472 19.519 9.76506 19.9044C9.07072 20.2643 8.31565 20.565 7.50942 20.8025C7.05736 20.9486 6.54836 21.0184 6.01004 21.0081C5.65093 20.9936 5.27752 20.8911 4.94447 20.7157C4.61158 20.5355 4.33674 20.2937 4.15812 20.0239C3.8921 19.6041 3.75723 19.1666 3.76585 18.7514C3.76074 18.3828 3.80816 18.0249 3.90734 17.6834C4.09455 17.0362 4.35595 16.415 4.68906 15.8259C4.98344 15.3114 5.29797 14.8093 5.61712 14.3138C5.93627 13.8184 6.27638 13.3332 6.63193 12.8636C7.08162 12.2581 7.53752 11.6549 8.02211 11.0698C8.25507 10.7737 8.48493 10.4764 8.71399 10.1813C8.94305 9.88615 9.20008 9.6016 9.40188 9.30338C9.52234 9.1073 9.56279 9.03803 9.61643 9.05592C9.67006 9.07382 9.71324 9.20378 9.70646 9.41874C9.69003 9.70631 9.64322 9.98675 9.56643 10.2576C9.50478 10.4204 9.46941 10.6076 9.39665 10.7903C9.32389 10.973 9.22617 11.156 9.11983 11.3429L7.95658 13.2977L7.38553 14.2706C7.18044 14.5869 6.98547 14.9046 6.79281 15.2256C6.40599 15.8622 6.06969 16.5156 5.7366 17.1605C5.4074 17.7634 5.22198 18.4271 5.18699 19.1277C5.19125 19.2187 5.20495 19.3111 5.22795 19.4042L5.26331 19.536L5.31911 19.6514C5.34473 19.7159 5.38596 19.7791 5.44051 19.8376C5.46943 19.8704 5.50758 19.899 5.55122 19.9206C5.71976 19.9885 5.90014 20.014 6.06055 19.9927C6.32921 19.9795 6.58444 19.9371 6.81905 19.8667C7.84622 19.5117 8.79992 19.0733 9.66752 18.5574C10.6727 18.0052 11.6495 17.4155 12.6511 16.8353C13.1531 16.542 13.6644 16.2523 14.1942 15.9888C14.4638 15.8493 14.7397 15.712 15.0278 15.5988L15.251 15.5069L15.3629 15.4647C15.4036 15.4511 15.4341 15.4361 15.4983 15.4168C15.7199 15.3391 15.9565 15.2799 16.205 15.2398C16.4795 15.1969 16.7855 15.2189 17.0872 15.3032C17.1618 15.3242 17.235 15.3519 17.3048 15.3856C17.5164 15.4832 17.6946 15.6257 17.8093 15.7894C17.9517 16.0166 18.0101 16.2539 17.9773 16.4718L17.9585 16.6435L17.896 16.8084C17.8799 16.8651 17.859 16.9201 17.8336 16.9733L17.7775 17.1212C17.4862 17.7215 17.1324 18.2522 16.8245 18.793C16.7286 18.9525 16.6428 19.1133 16.5609 19.2733L16.472 19.5079C16.4552 19.5523 16.4376 19.5988 16.42 19.6453C16.3833 19.7402 16.3673 19.8425 16.3725 19.9488C16.3712 20.0619 16.4682 20.182 16.6145 20.2483C16.726 20.2966 16.8478 20.3131 16.9525 20.2942C17.0581 20.2833 17.1588 20.263 17.2526 20.2338L17.3942 20.1883L17.4638 20.1639L17.5734 20.1184C17.7237 20.0594 17.8711 19.9895 18.0043 19.9191C18.5796 19.6294 19.1295 19.3035 19.6623 18.9663C20.3467 18.5294 20.9907 18.0675 21.6324 17.6023C22.2741 17.1372 22.9089 16.6622 23.598 16.2222C23.8994 16.027 24.1852 15.8258 24.5076 15.641C24.9183 15.3792 25.3982 15.1786 25.9304 15.0463C26.213 14.9717 26.5544 14.9965 26.8781 15.1151C27.0122 15.1537 27.1437 15.2035 27.2697 15.2634C27.6216 15.4789 27.2747 15.8696 26.5091 16.399C25.3411 17.1652 24.1871 18.0164 22.9089 18.8109C22.2772 19.2122 21.6298 19.6172 20.9569 20.0053C20.2659 20.4162 19.537 20.7936 18.773 21.136L18.5561 21.2302L18.3841 21.2715L18.1799 21.3415C18.0399 21.3828 17.9067 21.4435 17.7738 21.4754L17.3488 21.5561L16.9188 21.5842C16.7768 21.5836 16.6398 21.5607 16.5011 21.5517C16.363 21.5331 16.2241 21.5032 16.0871 21.4626L15.6861 21.3107L15.6109 21.2653C15.5908 21.2465 15.5669 21.2301 15.5404 21.2169L15.3986 21.1221C15.3074 21.0565 15.2222 20.9862 15.1441 20.9121C15.0668 20.8401 15.0004 20.763 14.9467 20.6826C14.8869 20.6048 14.8387 20.524 14.8033 20.4421C14.6525 20.0673 14.6341 19.6943 14.7499 19.3633C14.7843 19.2724 14.8187 19.1815 14.8524 19.0927L14.9648 18.8428L15.122 18.5591C15.2306 18.3755 15.3446 18.2059 15.4554 18.0352L16.1232 17.0603C16.2168 16.8975 16.3058 16.7378 16.379 16.5819L16.4095 16.5016L16.4485 16.4922Z" fill="#0A7CFF"/>
</svg>
